<svg xmlns="http://www.w3.org/2000/svg" width="24" height="24" fill="none" viewBox="0 0 24 24"><path fill="#000" fill-rule="evenodd" d="M8.087 2.51c.667-.293 1.322-.04 1.691.39.352.41.496 1.024.26 1.605a7.255 7.255 0 0 0 9.459 9.458 1.56 1.56 0 0 1 1.605.26c.429.369.68 1.024.388 1.69A10.17 10.17 0 0 1 12.172 22C6.554 22 2 17.446 2 11.828 2 7.662 4.505 4.082 8.087 2.51m-.291 2.416a8.172 8.172 0 1 0 11.28 11.278A9.255 9.255 0 0 1 7.795 4.926" clip-rule="evenodd"/><path fill="#000" d="M19.87 2.5c.337 0 .635.1.882.307.255.212.385.494.385.829 0 .395-.18.756-.501 1.078h-.001l-3.51 3.459a.7.7 0 0 0-.097.115q.047.009.138.01h3.225a1.1 1.1 0 0 1 .749.28.94.94 0 0 1 .36.752.94.94 0 0 1-.326.72l-.008.009c-.212.17-.466.252-.75.252h-5.277c-.318 0-.598-.09-.83-.28l-.007-.007a1.01 1.01 0 0 1-.352-.772c0-.313.117-.606.33-.877l.007-.01.009-.009 3.796-3.77a.7.7 0 0 0 .096-.117 1 1 0 0 0-.137-.01h-2.887c-.283 0-.537-.081-.749-.251l-.008-.007-.008-.008a.98.98 0 0 1-.293-.713c0-.289.096-.538.301-.721l.008-.007.082-.06c.194-.129.42-.192.667-.192z"/></svg>