<svg xmlns="http://www.w3.org/2000/svg" width="24" height="24" fill="none" viewBox="0 0 24 24"><path fill="#000" fill-rule="evenodd" d="M3.44 5.693c-.82-2.13 1.352-4.137 3.376-3.247l.196.095 13.72 7.376c1.782.959 1.782 3.516 0 4.475l-13.72 7.374-.195.095c-1.958.861-4.057-.988-3.449-3.039l.07-.206 2.488-6.462zm2.625-1.39a.54.54 0 0 0-.76.67l2.361 6.134q.001.029.02.054a1 1 0 0 1 .183-.017l6.452-.02a1 1 0 0 1 .005 2l-6.45.02a1 1 0 0 1-.194-.019l-.017.076-2.36 6.133a.541.541 0 0 0 .76.67l13.72-7.374.067-.042a.54.54 0 0 0-.068-.91z" clip-rule="evenodd"/></svg>