<svg xmlns="http://www.w3.org/2000/svg" width="24" height="24" fill="none" viewBox="0 0 24 24"><path fill="#000" d="M11.69 15.497a1.252 1.252 0 1 1-.001 2.504 1.252 1.252 0 0 1 .001-2.504M11.957 6q1.521 0 2.525.832 1.005.804 1.004 2.095 0 1.205-.545 1.865-.516.66-1.176 1.149-.458.344-.803.688-.316.315-.317.69v.302a.82.82 0 0 1-.286.631.9.9 0 0 1-.66.259 1 1 0 0 1-.688-.259.86.86 0 0 1-.26-.63v-.303q0-.832.488-1.35.518-.515 1.034-.918.488-.373.89-.832a1.68 1.68 0 0 0 .43-1.148q0-.631-.46-1.004-.43-.402-1.176-.402-.63 0-1.004.315-.373.316-.43.89-.03.315-.316.573a.92.92 0 0 1-.632.23q-.372 0-.688-.287a.9.9 0 0 1-.287-.66q0-.746.459-1.349.459-.63 1.206-1.003A3.85 3.85 0 0 1 11.957 6"/><path fill="#000" fill-rule="evenodd" d="M10.686 2.093c2.557-.357 5.274.323 7.333 1.91a9.95 9.95 0 0 1 3.875 6.519c.186 1.275.13 2.598-.181 3.858-.157.63-.376 1.244-.65 1.831-.065.148-.143.29-.214.436-.057.107-.062.129-.084.196a.5.5 0 0 0 .002.287l.825 2.475c.237.738.106 1.141-.282 1.625a1.5 1.5 0 0 1-.706.426c-.224.06-.519.086-.867-.023l-2.135-.711-.415-.139c-.12-.04-.105-.03-.169-.04a.63.63 0 0 0-.32.078 10 10 0 0 1-3.69 1.128c-2.577.273-5.261-.52-7.269-2.156-2.018-1.61-3.415-4.043-3.663-6.636-.334-2.565.446-5.255 2.03-7.3 1.602-2.025 3.99-3.469 6.58-3.764M16.813 5.6c-1.647-1.27-3.803-1.808-5.866-1.523-2.07.23-3.975 1.392-5.263 3.01-1.262 1.643-1.892 3.77-1.62 5.846.193 2.066 1.306 4 2.927 5.3a7.99 7.99 0 0 0 5.814 1.726 8 8 0 0 0 2.965-.91c.4-.21.87-.33 1.364-.303.227.007.53.082.685.139l1.6.534-.55-1.657a2.5 2.5 0 0 1-.036-1.438 3 3 0 0 1 .246-.612c.057-.117.12-.229.172-.349q.33-.707.52-1.463a8.1 8.1 0 0 0 .142-3.091 7.95 7.95 0 0 0-3.1-5.21" clip-rule="evenodd"/></svg>