<svg xmlns="http://www.w3.org/2000/svg" width="24" height="24" fill="none" viewBox="0 0 24 24"><path fill="#000" fill-rule="evenodd" d="m17.257 12.922.075.005.064.006q.16.012.316.034h.005A5.001 5.001 0 0 1 17 22.917a5 5 0 0 1-4.34-2.518l-.035-.061q-.034-.061-.066-.124l-.045-.089-.045-.094-.046-.102-.047-.108-.047-.12q-.017-.043-.033-.086a5 5 0 0 1-.136-.437l-.022-.095-.033-.14-.01-.055-.033-.178-.01-.07-.02-.155-.01-.09a5.1 5.1 0 0 1 .135-1.728q.061-.24.147-.469A4.994 4.994 0 0 1 17 12.916zm-1.541 7.693c.39.187.822.301 1.284.301 1.654 0 3-1.346 3-3 0-.461-.114-.893-.3-1.284zM17 14.916q-.155 0-.307.016a3 3 0 0 0-.945.261q-.222.102-.424.237a3.03 3.03 0 0 0-1.088 1.32A3 3 0 0 0 14 17.916a2.9 2.9 0 0 0 .302 1.285l.1-.101 3.883-3.882a3 3 0 0 0-1.092-.295z" clip-rule="evenodd"/><path fill="#000" d="M19.549 4.067c1.959.01 3.12 2.195 2.033 3.825l-2.858 4.277a6 6 0 0 0-6.644 9.182c-1.386.55-3.145-.266-3.355-1.992l-.662-5.418-.02-.156q.04-.015.077-.035l7.383-4.034a.968.968 0 0 0-.911-1.71l-7.383 4.036-.024.014-.21-.163-4.123-3.578C1.13 6.821 2.192 3.991 4.472 4z"/></svg>