<svg xmlns="http://www.w3.org/2000/svg" width="24" height="24" fill="none" viewBox="0 0 24 24"><path fill="#000" fill-rule="evenodd" d="M2.136 13.673A10.013 10.013 0 0 1 13.67 2.135c4.029.652 7.318 3.817 8.123 7.817.494 2.454.074 4.78-.965 6.73-.245.46-.265 1.01-.1 1.506l.64 1.915a1 1 0 0 1-1.265 1.265l-1.923-.64c-.493-.165-1.038-.146-1.496.099-1.95 1.038-4.275 1.461-6.73.967-4.001-.805-7.166-4.093-7.82-8.12m9.561 1.822a1.252 1.252 0 1 0 0 2.504 1.252 1.252 0 0 0 0-2.504m.267-9.497a3.85 3.85 0 0 0-1.693.373 3.3 3.3 0 0 0-1.206 1.003 2.17 2.17 0 0 0-.459 1.35.9.9 0 0 0 .288.66q.315.285.687.286a.92.92 0 0 0 .633-.23q.287-.257.315-.573.058-.575.431-.89t1.004-.315q.745 0 1.176.402.46.373.46 1.004 0 .66-.431 1.147a6 6 0 0 1-.889.832q-.517.402-1.034.92-.487.516-.487 1.348v.304a.86.86 0 0 0 .258.63q.285.258.688.258a.9.9 0 0 0 .661-.258.82.82 0 0 0 .286-.63v-.304q0-.374.317-.69.345-.344.803-.688a6 6 0 0 0 1.176-1.147q.546-.66.545-1.867 0-1.29-1.005-2.094-1.004-.832-2.524-.831" clip-rule="evenodd"/></svg>