<svg xmlns="http://www.w3.org/2000/svg" width="24" height="24" fill="none" viewBox="0 0 24 24"><path fill="#000" d="M12 3c3.09 0 5.947 1.168 7.9 3.067a6.05 6.05 0 0 0-2.898.275C15.619 5.506 13.904 5 12 5c-4.862 0-8.5 3.288-8.5 7 0 2.283 1.344 4.374 3.536 5.679l.655.39-.203.735c-.17.617-.404 1.203-.648 1.721.798-.31 1.695-.774 2.502-1.464l.361-.309.467.085q.883.162 1.83.163c1.904 0 3.618-.506 5.002-1.343a6 6 0 0 0 2.897.275C17.947 19.83 15.09 21 12 21a12 12 0 0 1-1.725-.121c-1.483 1.145-3.098 1.704-4.151 1.97a1.44 1.44 0 0 1-1.57-.609 1.52 1.52 0 0 1-.033-1.605c.27-.458.574-1.043.814-1.677C3.031 17.335 1.5 14.848 1.5 12c0-5.125 4.869-9 10.5-9"/><path fill="#000" fill-rule="evenodd" d="M19.75 7.179c1.48 0 2.679 1.2 2.679 2.678v.628c.624.221 1.071.815 1.071 1.515v3.214c0 .887-.72 1.607-1.607 1.607h-4.286c-.887 0-1.607-.72-1.607-1.607V12c0-.7.447-1.294 1.071-1.515v-.628c0-1.479 1.2-2.678 2.679-2.678m0 1.606c-.592 0-1.071.48-1.071 1.072v.536h2.142v-.536c0-.591-.48-1.072-1.071-1.072" clip-rule="evenodd"/></svg>