<svg xmlns="http://www.w3.org/2000/svg" width="24" height="24" fill="none" viewBox="0 0 24 24"><path fill="#000" fill-rule="evenodd" d="M6 5a1 1 0 0 1 1-1h4v5a2 2 0 0 0 2 2h7v-1a1 1 0 0 0-.293-.707l-7-7A1 1 0 0 0 12 2H7a3 3 0 0 0-3 3v14a3 3 0 0 0 3 3h7v-2H7a1 1 0 0 1-1-1zm10.586 4L13 5.414V9z" clip-rule="evenodd"/><path fill="#000" fill-rule="evenodd" d="M17.566 20.714a.473.473 0 0 0 .869 0l.983-2.296 2.296-.983a.473.473 0 0 0 0-.87l-2.296-.983-.983-2.296a.473.473 0 0 0-.87 0l-.983 2.296-2.296.983a.473.473 0 0 0 0 .87l2.296.983z" clip-rule="evenodd"/></svg>