<svg xmlns="http://www.w3.org/2000/svg" width="24" height="24" fill="none" viewBox="0 0 24 24"><path fill="#000" d="M17 7a1 1 0 0 0-1 1v8a1 1 0 1 0 2 0V8a1 1 0 0 0-1-1"/><path fill="#000" fill-rule="evenodd" d="M8.4 3c-2.24 0-3.36 0-4.216.436a4 4 0 0 0-1.748 1.748C2 6.039 2 7.16 2 9.4v5.2c0 2.24 0 3.36.436 4.216l.154.276a4 4 0 0 0 1.594 1.473l.164.076C5.184 21 6.3 21 8.4 21h7.2l1.484-.007c1.192-.019 1.955-.089 2.568-.352l.164-.076a4 4 0 0 0 1.594-1.473l.154-.276C22 17.961 22 16.84 22 14.6V9.4c0-2.24 0-3.36-.436-4.216a4 4 0 0 0-1.748-1.748c-.641-.327-1.432-.409-2.732-.43L15.6 3zm7.2 2c1.153 0 1.898.002 2.464.048.544.044.745.12.844.17a2 2 0 0 1 .874.874c.05.099.126.3.17.844.046.566.048 1.311.048 2.464v5.2c0 1.153-.002 1.898-.048 2.464-.044.544-.12.745-.17.844a2 2 0 0 1-.874.874c-.099.05-.3.126-.844.17-.566.046-1.311.048-2.464.048H8.4c-1.153 0-1.898-.002-2.464-.048-.544-.044-.745-.12-.844-.17a2 2 0 0 1-.874-.874c-.05-.099-.126-.3-.17-.844C4.002 16.499 4 15.753 4 14.6V9.4c0-1.153.002-1.898.048-2.464.044-.544.12-.745.17-.844a2 2 0 0 1 .874-.874c.099-.05.3-.126.844-.17C6.502 5.002 7.247 5 8.4 5z" clip-rule="evenodd"/></svg>