<svg xmlns="http://www.w3.org/2000/svg" width="24" height="24" fill="none" viewBox="0 0 24 24"><path fill="#000" d="M15.251 20.6c2.36 0 3.542 0 4.444-.436l.29-.154a4.1 4.1 0 0 0 1.555-1.594l.081-.164c.278-.613.352-1.377.372-2.568L22 14.199V4.056a1.056 1.056 0 0 0-2.111 0v10.143c0 1.153-.002 1.898-.051 2.465-.047.543-.126.745-.179.844a2.06 2.06 0 0 1-.923.874c-.104.05-.317.125-.89.17-.598.046-1.385.048-2.602.048H8.756c-1.217 0-2.004-.002-2.602-.048-.573-.045-.786-.12-.89-.17a2.06 2.06 0 0 1-.923-.874c-.053-.1-.133-.3-.18-.844-.049-.567-.05-1.312-.05-2.465V4.056a1.056 1.056 0 0 0-2.111 0v10.143l.007 1.485c.021 1.3.108 2.09.453 2.732a4.12 4.12 0 0 0 1.845 1.748c.902.436 2.084.436 4.444.436z"/><path fill="#000" d="M16.047 16.6c.1 0 .24 0 .363-.01.136-.01.342-.037.56-.143.279-.134.506-.349.647-.612.111-.207.14-.403.152-.531.01-.117.008-.249.008-.344v-3.72c0-.096.002-.228-.008-.344a1.35 1.35 0 0 0-.152-.532 1.44 1.44 0 0 0-.646-.612 1.6 1.6 0 0 0-.56-.144c-.124-.01-.263-.008-.364-.008H7.953c-.1 0-.24-.001-.363.008a1.6 1.6 0 0 0-.4.079l-.16.065-.102.055a1.44 1.44 0 0 0-.488.46l-.057.097-.07.153a1.4 1.4 0 0 0-.082.379c-.01.116-.008.248-.008.343v3.721c0 .095-.002.227.008.344.009.096.027.23.082.379l.07.152c.124.23.313.423.545.558l.101.054c.219.106.425.133.56.144.124.01.263.009.364.009z"/></svg>