<svg xmlns="http://www.w3.org/2000/svg" width="24" height="24" fill="none" viewBox="0 0 24 24"><path fill="#000" d="M7 7a1 1 0 0 1 1 1v8a1 1 0 1 1-2 0V8a1 1 0 0 1 1-1"/><path fill="#000" fill-rule="evenodd" d="M15.6 3c2.24 0 3.36 0 4.216.436a4 4 0 0 1 1.749 1.748C22 6.039 22 7.16 22 9.4v5.2c0 2.24 0 3.36-.436 4.216l-.154.276a4 4 0 0 1-1.594 1.473l-.164.076C18.816 21 17.7 21 15.6 21H8.4l-1.484-.007c-1.192-.019-1.955-.089-2.568-.352l-.164-.076a4 4 0 0 1-1.594-1.473l-.154-.276C2 17.961 2 16.84 2 14.6V9.4c0-2.24 0-3.36.436-4.216a4 4 0 0 1 1.748-1.748c.641-.327 1.432-.409 2.732-.43L8.4 3zM8.4 5c-1.153 0-1.898.002-2.464.048-.544.044-.745.12-.844.17a2 2 0 0 0-.874.874c-.05.099-.126.3-.17.844C4.002 7.502 4 8.247 4 9.4v5.2c0 1.153.002 1.898.048 2.464.044.544.12.745.17.844a2 2 0 0 0 .874.874c.099.05.3.126.844.17.566.046 1.311.048 2.464.048h7.2c1.153 0 1.898-.002 2.464-.048.544-.044.745-.12.844-.17a2 2 0 0 0 .874-.874c.05-.099.126-.3.17-.844.046-.566.048-1.311.048-2.464V9.4c0-1.153-.002-1.898-.048-2.464-.044-.544-.12-.745-.17-.844a2 2 0 0 0-.874-.874c-.099-.05-.3-.126-.844-.17C17.499 5.002 16.754 5 15.6 5z" clip-rule="evenodd"/></svg>