<svg xmlns="http://www.w3.org/2000/svg" width="24" height="24" fill="none" viewBox="0 0 24 24"><path fill="#000" fill-rule="evenodd" d="M14.45 2c.824 0 1.502-.001 2.052.044.562.046 1.08.144 1.564.392a4 4 0 0 1 1.749 1.748c.247.485.345 1.002.391 1.564.045.55.044 1.228.044 2.052v11.89c0 .353.001.688-.023.956-.024.257-.082.641-.34.976a1.75 1.75 0 0 1-1.313.682c-.422.018-.77-.155-.993-.284-.234-.134-.507-.327-.797-.53L12 18.123l-4.784 3.365c-.29.204-.563.397-.797.531-.223.129-.571.302-.993.284a1.75 1.75 0 0 1-1.314-.682c-.257-.335-.315-.72-.339-.976-.024-.268-.023-.603-.023-.957V7.8c0-.823-.001-1.5.044-2.051.046-.562.144-1.08.392-1.564a4 4 0 0 1 1.748-1.748c.485-.248 1.002-.346 1.564-.392C8.048 1.999 8.726 2 9.55 2zm-4.9 2c-.857 0-1.439 0-1.889.037-.438.036-.663.101-.82.18a2 2 0 0 0-.873.875c-.08.156-.145.38-.18.82-.038.45-.038 1.031-.038 1.888v11.89l.001.38q.132-.089.314-.218L12 15.68l5.935 4.172q.182.13.313.218l.002-.38V7.8c0-.857 0-1.439-.037-1.889-.036-.438-.101-.663-.18-.82a2 2 0 0 0-.875-.873c-.156-.08-.38-.145-.82-.18C15.889 4 15.308 4 14.45 4z" clip-rule="evenodd"/></svg>