<svg xmlns="http://www.w3.org/2000/svg" width="24" height="24" fill="none" viewBox="0 0 24 24"><path fill="#000" d="M12 2c2.555 0 4.906.31 6.651.833.866.26 1.64.589 2.22 1C21.425 4.226 22 4.843 22 5.699v12.6c0 .857-.575 1.474-1.129 1.867-.58.411-1.353.74-2.22 1-1.745.524-4.096.833-6.651.833s-4.906-.31-6.651-.833c-.867-.26-1.64-.589-2.22-1C2.575 19.773 2 19.156 2 18.299v-12.6l.007-.157c.065-.776.603-1.34 1.122-1.709.58-.411 1.353-.74 2.22-1C7.094 2.309 9.445 2 12 2m8 12.361c-.409.192-.864.36-1.349.506-1.745.524-4.096.833-6.651.833s-4.906-.31-6.651-.833A10 10 0 0 1 4 14.361v3.903c.017.03.08.124.286.27.331.235.876.488 1.638.717 1.512.453 3.66.748 6.076.748s4.564-.294 6.076-.748c.762-.229 1.307-.482 1.638-.717.206-.146.27-.24.286-.27zM5.646 16.625a.75.75 0 0 1 .905-.554 19 19 0 0 0 2.165.381.75.75 0 0 1-.182 1.49A21 21 0 0 1 6.2 17.53a.75.75 0 0 1-.553-.905M20 8.062c-.409.19-.864.36-1.349.505-1.745.524-4.096.833-6.651.833s-4.906-.309-6.651-.833A10 10 0 0 1 4 8.062v3.902c.016.03.079.124.286.271.331.235.876.488 1.638.716 1.512.454 3.66.75 6.076.75s4.564-.296 6.076-.75c.762-.229 1.307-.48 1.638-.716.208-.147.27-.24.286-.271zM5.646 10.324a.75.75 0 0 1 .905-.553c.645.155 1.373.284 2.165.38a.75.75 0 0 1-.182 1.49c-.84-.102-1.626-.241-2.335-.412a.75.75 0 0 1-.553-.905M12 4c-2.416 0-4.564.295-6.076.749-.762.229-1.307.481-1.638.716a1.2 1.2 0 0 0-.26.235c.035.047.108.127.26.236.331.234.876.487 1.638.715 1.512.454 3.66.75 6.076.75s4.564-.296 6.076-.75c.762-.228 1.307-.48 1.638-.715.152-.108.224-.19.26-.236a1.2 1.2 0 0 0-.26-.235c-.331-.235-.876-.487-1.638-.716C16.564 4.295 14.416 4 12 4"/></svg>