<svg xmlns="http://www.w3.org/2000/svg" width="24" height="24" fill="none" viewBox="0 0 24 24"><path fill="#000" fill-rule="evenodd" d="M2.136 13.673A10.013 10.013 0 0 1 13.67 2.135c4.029.652 7.318 3.818 8.123 7.818.494 2.454.074 4.78-.965 6.728-.246.461-.265 1.011-.1 1.507l.64 1.915a1 1 0 0 1-1.265 1.266l-1.923-.642c-.493-.164-1.038-.144-1.496.1-1.95 1.04-4.275 1.461-6.73.967-4.002-.805-7.166-4.093-7.82-8.12M11.916 15a1.4 1.4 0 1 0 0 2.801 1.4 1.4 0 0 0 0-2.801m0-9.2c-.813 0-1.457.685-1.406 1.496l.344 5.505a1.065 1.065 0 0 0 2.125 0l.343-5.505a1.41 1.41 0 0 0-1.406-1.497" clip-rule="evenodd"/></svg>