<svg xmlns="http://www.w3.org/2000/svg" width="24" height="24" fill="none" viewBox="0 0 24 24"><path fill="#000" fill-rule="evenodd" d="M19.549 4.069c1.96.01 3.12 2.195 2.033 3.824L13.21 20.43l-.124.17c-1.282 1.625-3.915.999-4.327-1.03l-.034-.208-.811-6.653-5.06-4.392c-1.669-1.448-.724-4.149 1.41-4.307L4.473 4zM4.465 5.937a.523.523 0 0 0-.345.917l4.804 4.169a.1.1 0 0 0 .042.037 1 1 0 0 1 .15-.098l5.504-2.949a.968.968 0 0 1 .913 1.707l-5.504 2.948a1 1 0 0 1-.174.072l.02.073.77 6.313c.06.48.685.63.954.227l8.374-12.535.038-.067a.523.523 0 0 0-.47-.746z" clip-rule="evenodd"/></svg>