<svg xmlns="http://www.w3.org/2000/svg" width="24" height="24" fill="none" viewBox="0 0 24 24"><path fill="#000" fill-rule="evenodd" d="M19.549 4.07c1.959.008 3.12 2.194 2.033 3.824l-3.444 5.155-.04-.009A5 5 0 0 1 17 22.918a4.99 4.99 0 0 1-4.13-2.186l.041.062c-1.331 1.373-3.76.717-4.153-1.225l-.034-.208-.81-6.653-5.061-4.392C1.184 6.87 2.129 4.168 4.263 4.01L4.473 4zm-3.833 16.547c.39.187.822.3 1.284.301 1.654 0 3-1.346 3-3 0-.462-.114-.893-.3-1.284zM4.465 5.937a.523.523 0 0 0-.345.917l4.805 4.17a.1.1 0 0 0 .04.037 1 1 0 0 1 .15-.098l5.505-2.95a.968.968 0 0 1 .913 1.708l-5.504 2.948a1 1 0 0 1-.174.071q.01.036.02.073l.77 6.314c.06.48.685.63.955.227l.456-.685.002.01-.005-.037-.02-.156q-.006-.045-.01-.09a5.05 5.05 0 0 1 .28-2.197 5.002 5.002 0 0 1 3.497-3.137l4.174-6.244.038-.066a.524.524 0 0 0-.471-.747zM17 14.918q-.155 0-.307.016a3 3 0 0 0-.945.261 3 3 0 0 0-.424.237 3.03 3.03 0 0 0-1.088 1.32A3 3 0 0 0 14 17.918a2.9 2.9 0 0 0 .302 1.285l.1-.101 3.883-3.882a3 3 0 0 0-1.092-.295zm-4.878 4.1-.017-.075-.002-.006z" clip-rule="evenodd"/></svg>