<svg xmlns="http://www.w3.org/2000/svg" width="24" height="24" fill="none" viewBox="0 0 24 24"><path fill="#000" d="M11.69 15.497a1.252 1.252 0 1 1-.001 2.504 1.252 1.252 0 0 1 .001-2.504M11.957 6q1.52 0 2.524.832 1.005.804 1.005 2.095 0 1.205-.545 1.865-.516.66-1.175 1.148-.46.344-.804.688-.316.315-.316.69v.303a.82.82 0 0 1-.287.631.9.9 0 0 1-.66.259 1 1 0 0 1-.688-.259.86.86 0 0 1-.259-.63v-.305q0-.832.487-1.348.518-.517 1.034-.918a6 6 0 0 0 .89-.832 1.68 1.68 0 0 0 .43-1.148q0-.63-.46-1.005-.43-.4-1.176-.401-.63 0-1.004.314-.373.317-.43.891-.03.315-.316.573a.92.92 0 0 1-.632.23q-.372 0-.688-.287a.9.9 0 0 1-.287-.66q0-.746.459-1.35.459-.63 1.206-1.003A3.85 3.85 0 0 1 11.957 6"/><path fill="#000" fill-rule="evenodd" d="M12 2c5.515 0 10 4.486 10 10s-4.485 10-10 10S2 17.514 2 12 6.486 2 12 2m0 2c-4.41 0-8 3.59-8 8s3.59 8 8 8 8-3.59 8-8-3.59-8-8-8" clip-rule="evenodd"/></svg>