<svg xmlns="http://www.w3.org/2000/svg" width="24" height="24" fill="none" viewBox="0 0 24 24"><path fill="#000" d="M20.59 14.292c.155-.1.41.01.41.195v4.592c0 1.061-4.03 2.22-9 2.22s-9-1.159-9-2.22v-4.592c0-.184.255-.296.41-.195 1.028.67 3.642 1.586 8.59 1.586s7.562-.916 8.59-1.586M6.662 16.227c-.366-.104-.752.093-.862.442-.11.35.098.717.464.822.59.17 1.243.307 1.941.408.378.055.73-.193.788-.553s-.203-.698-.58-.752a13 13 0 0 1-1.75-.367m13.93-8.49c.154-.1.409.011.409.196v4.311c0 1.061-4.03 2.456-9 2.456s-9-1.395-9-2.456V7.933c0-.185.255-.296.41-.196 1.028.67 3.642 1.586 8.59 1.586s7.562-.916 8.59-1.586M6.66 10.528c-.366-.105-.752.092-.862.442-.11.349.098.717.464.822.59.17 1.243.307 1.941.408.378.055.73-.193.788-.553s-.203-.698-.58-.752a13 13 0 0 1-1.75-.367M12 3c4.97 0 9 1.12 9 2.5S16.97 8 12 8 3 6.88 3 5.5 7.03 3 12 3"/></svg>