<svg xmlns="http://www.w3.org/2000/svg" width="24" height="24" fill="none" viewBox="0 0 24 24"><path fill="#000" d="M12 15.42a1.292 1.292 0 1 1-.002 2.584A1.292 1.292 0 0 1 12 15.42M12 7.22a1.3 1.3 0 0 1 1.297 1.381l-.317 5.08a.983.983 0 0 1-1.96 0l-.318-5.08A1.3 1.3 0 0 1 12 7.221"/><path fill="#000" fill-rule="evenodd" d="M8.986 4.319c1.355-2.292 4.672-2.292 6.027 0l6.866 11.62c1.379 2.333-.303 5.28-3.013 5.281H5.133c-2.71 0-4.391-2.948-3.013-5.281zm4.305 1.017a1.5 1.5 0 0 0-2.583 0l-6.866 11.62a1.5 1.5 0 0 0 1.29 2.264h13.734a1.5 1.5 0 0 0 1.291-2.264z" clip-rule="evenodd"/></svg>