<svg xmlns="http://www.w3.org/2000/svg" width="24" height="24" fill="none" viewBox="0 0 24 24"><path fill="#000" d="M15.251 3c2.36 0 3.542 0 4.444.436l.29.154c.662.384 1.2.935 1.555 1.594l.081.164c.278.613.352 1.376.372 2.568L22 9.4v10.144a1.056 1.056 0 0 1-2.111 0V9.4c0-1.153-.002-1.898-.051-2.464-.047-.544-.126-.745-.179-.844a2.06 2.06 0 0 0-.923-.874c-.104-.05-.317-.126-.89-.17C17.248 5.002 16.46 5 15.244 5H8.756c-1.217 0-2.004.002-2.602.048-.573.044-.786.12-.89.17a2.06 2.06 0 0 0-.923.874c-.053.099-.133.3-.18.844-.049.566-.05 1.311-.05 2.464v10.144a1.056 1.056 0 0 1-2.111 0V9.4l.007-1.484c.021-1.3.108-2.09.453-2.732a4.12 4.12 0 0 1 1.845-1.748C5.207 3 6.389 3 8.749 3z"/><path fill="#000" d="M16.047 7c.1 0 .24 0 .363.009.136.01.342.038.56.143.279.135.506.35.647.613.111.207.14.402.152.53.01.118.008.25.008.345v3.72c0 .096.002.227-.008.344-.011.129-.04.324-.152.531a1.45 1.45 0 0 1-.646.613 1.6 1.6 0 0 1-.56.143c-.124.01-.263.009-.364.009H7.953c-.1 0-.24 0-.363-.009a1.6 1.6 0 0 1-.4-.078l-.16-.065-.102-.055a1.44 1.44 0 0 1-.488-.461l-.057-.097-.07-.152a1.4 1.4 0 0 1-.082-.379c-.01-.117-.008-.248-.008-.344V8.64c0-.096-.002-.227.008-.344.009-.096.027-.23.082-.379l.07-.152c.124-.23.313-.423.545-.558l.101-.055a1.6 1.6 0 0 1 .56-.143c.124-.01.263-.009.364-.009z"/></svg>