<svg xmlns="http://www.w3.org/2000/svg" width="24" height="24" fill="none" viewBox="0 0 24 24"><path fill="#000" d="M11.909 15a1.4 1.4 0 1 1-.001 2.8 1.4 1.4 0 0 1 0-2.8M11.909 5.8a1.41 1.41 0 0 1 1.406 1.496l-.344 5.505a1.065 1.065 0 0 1-2.125 0l-.344-5.505A1.41 1.41 0 0 1 11.91 5.8"/><path fill="#000" fill-rule="evenodd" d="M4.936 4.922c2.302-2.297 5.485-3.31 8.728-2.787 4.054.656 7.32 3.8 8.13 7.825.47 2.335.136 4.662-.97 6.729-.046.09-.117.266-.059.443l.868 2.603a1.499 1.499 0 0 1-1.898 1.898l-2.604-.868c-.174-.058-.351.013-.44.06A9.9 9.9 0 0 1 12 22q-.728 0-1.464-.106c-4.27-.616-7.725-4.01-8.404-8.251-.519-3.246.504-6.425 2.804-8.72M12 4A7.93 7.93 0 0 0 6.35 6.338c-1.842 1.837-2.659 4.386-2.243 6.99.541 3.385 3.303 6.094 6.715 6.587a7.97 7.97 0 0 0 4.926-.855c.644-.343 1.358-.412 2.016-.192l1.655.551-.551-1.655c-.22-.657-.15-1.373.193-2.017.883-1.652 1.15-3.518.773-5.393A7.946 7.946 0 0 0 11.999 4" clip-rule="evenodd"/></svg>