<svg xmlns="http://www.w3.org/2000/svg" width="24" height="24" fill="none" viewBox="0 0 24 24"><path fill="#000" fill-rule="evenodd" d="M12 2c5.515 0 10 4.486 10 10s-4.485 10-10 10S2 17.514 2 12 6.486 2 12 2m-.309 13.498c-.69 0-1.251.56-1.251 1.251S11 17.999 11.69 18a1.252 1.252 0 0 0 0-2.502M11.957 6q-.918 0-1.692.373-.747.374-1.205 1.004-.46.603-.46 1.35 0 .372.287.659.316.286.688.287a.92.92 0 0 0 .632-.23q.286-.259.316-.574.058-.573.43-.889.374-.316 1.004-.316.746 0 1.177.402.459.374.459 1.004 0 .66-.43 1.149a6 6 0 0 1-.89.832q-.517.402-1.033.918-.488.517-.488 1.348v.304a.86.86 0 0 0 .259.631 1 1 0 0 0 .688.259.9.9 0 0 0 .66-.259.82.82 0 0 0 .287-.63v-.305q0-.372.316-.688.345-.345.804-.689.66-.488 1.175-1.148.546-.66.546-1.865 0-1.292-1.005-2.095Q13.478 6 11.957 6" clip-rule="evenodd"/></svg>